<svg width="347" height="330" viewBox="0 0 347 330" fill="none" xmlns="http://www.w3.org/2000/svg">
<path d="M69.544 176.737L197.799 79.1989C197.799 79.1989 8.91563 155.865 11.4987 183.455C14.0818 211.045 96.8909 203.302 182.37 205.186C267.849 207.071 84.7206 284.264 84.7206 284.264C84.7206 284.264 305.712 209.07 295.021 192.148C284.329 175.225 69.544 176.737 69.544 176.737Z" fill="#F2EFEF" stroke="#F8F7F7"/>
<path d="M256.742 42.8171C255.442 84.2052 243.132 166.982 204.293 166.982H256.742V42.8171Z" fill="#F2EFEF"/>
<path d="M204.293 42.8171V166.982M204.293 166.982C243.132 166.982 255.442 84.2052 256.742 42.8171V166.982H204.293Z" stroke="#F8F7F7"/>
<path d="M115.434 1H340.401C287.952 1 340.401 41.2087 340.401 41.2087H115.434V1Z" fill="#F2EFEF" stroke="#F8F7F7"/>
<path d="M66.5003 308.671H57.6043C57.2843 308.671 57.1243 308.511 57.1243 308.191V306.623C57.1243 306.303 57.2843 306.143 57.6043 306.143H60.2283V289.503H55.9083L56.0683 291.999C56.0896 292.319 55.9403 292.479 55.6203 292.479H53.6683C53.3483 292.479 53.1883 292.319 53.1883 291.999V287.423C53.1883 287.103 53.3483 286.943 53.6683 286.943H70.4043C70.7243 286.943 70.8843 287.103 70.8843 287.423V291.999C70.8843 292.319 70.7243 292.479 70.4043 292.479H68.4523C68.1323 292.479 67.983 292.319 68.0043 291.999L68.1643 289.503H63.8443V306.143H66.5003C66.8203 306.143 66.9803 306.303 66.9803 306.623V308.191C66.9803 308.511 66.8203 308.671 66.5003 308.671ZM77.917 295.583C78.2797 294.73 78.8664 294.004 79.677 293.407C80.4877 292.788 81.373 292.479 82.333 292.479C83.293 292.479 84.029 292.564 84.541 292.735C84.797 292.82 84.925 293.012 84.925 293.311V297.631C84.925 297.951 84.765 298.111 84.445 298.111H82.365C82.045 298.111 81.8957 297.951 81.917 297.631L82.045 295.775C81.9384 295.754 81.757 295.743 81.501 295.743C80.5197 295.743 79.709 296.148 79.069 296.959C78.429 297.748 78.109 298.815 78.109 300.159V306.143H81.629C81.949 306.143 82.109 306.303 82.109 306.623V308.191C82.109 308.511 81.949 308.671 81.629 308.671H72.829C72.509 308.671 72.349 308.511 72.349 308.191V306.623C72.349 306.303 72.509 306.143 72.829 306.143H74.525V295.455H72.797C72.477 295.455 72.317 295.295 72.317 294.975V293.311C72.317 292.991 72.477 292.831 72.797 292.831H77.021C77.3197 292.831 77.501 292.991 77.565 293.311L77.917 295.583ZM95.5443 299.167V298.047C95.5443 296.532 95.1176 295.583 94.2643 295.199C93.859 295.028 93.2723 294.943 92.5043 294.943C91.0536 294.943 90.179 295.626 89.8803 296.991C89.8163 297.311 89.6563 297.471 89.4003 297.471H87.3523C87.011 297.471 86.8616 297.311 86.9043 296.991C86.9896 295.434 87.619 294.292 88.7923 293.567C89.9656 292.842 91.459 292.479 93.2723 292.479C97.091 292.479 99.0003 294.228 99.0003 297.727V306.143H100.376C100.696 306.143 100.856 306.303 100.856 306.623V308.191C100.856 308.511 100.696 308.671 100.376 308.671H96.6003C96.323 308.671 96.163 308.511 96.1203 308.191L95.8963 306.719C94.7443 308.276 93.0803 309.055 90.9043 309.055C89.539 309.055 88.4083 308.703 87.5123 307.999C86.6163 307.274 86.1683 306.122 86.1683 304.543C86.1683 302.474 87.0323 301.055 88.7603 300.287C90.1896 299.626 91.8963 299.263 93.8803 299.199C94.2856 299.199 94.8403 299.188 95.5443 299.167ZM95.6083 303.839V301.375C93.5603 301.375 92.3016 301.471 91.8323 301.663C91.363 301.855 90.947 302.047 90.5843 302.239C89.9016 302.602 89.5603 303.263 89.5603 304.223C89.5603 305.695 90.403 306.431 92.0883 306.431C93.1976 306.431 94.0616 306.175 94.6803 305.663C95.299 305.13 95.6083 304.522 95.6083 303.839ZM106.598 300.543C106.598 304.426 108.102 306.367 111.11 306.367C112.07 306.367 113.19 306.079 114.47 305.503C114.79 305.375 115.014 305.471 115.142 305.791L115.718 307.199C115.824 307.498 115.739 307.722 115.462 307.871C114.16 308.66 112.518 309.055 110.534 309.055C107.952 309.055 106.043 308.33 104.806 306.879C103.568 305.407 102.95 303.423 102.95 300.927C102.95 298.41 103.579 296.372 104.838 294.815C106.118 293.258 108.016 292.479 110.534 292.479C112.454 292.479 113.872 293.002 114.79 294.047C115.707 295.092 116.166 296.426 116.166 298.047C116.166 298.324 115.984 298.463 115.622 298.463H113.702C113.36 298.463 113.179 298.303 113.158 297.983C113.051 296.106 112.102 295.167 110.31 295.167C109.03 295.167 108.091 295.615 107.494 296.511C106.896 297.386 106.598 298.73 106.598 300.543ZM123.39 285.279V298.047H125.022L129.982 293.183C130.217 292.948 130.494 292.831 130.814 292.831H133.31C133.63 292.831 133.79 292.991 133.79 293.311V294.975C133.79 295.295 133.63 295.455 133.31 295.455H131.358L127.838 298.879L132.222 306.143H134.11C134.43 306.143 134.59 306.303 134.59 306.623V308.191C134.59 308.511 134.43 308.671 134.11 308.671H129.982C129.684 308.671 129.438 308.532 129.246 308.255L124.446 300.511H123.39V306.143H125.086C125.406 306.143 125.566 306.303 125.566 306.623V308.191C125.566 308.511 125.406 308.671 125.086 308.671H118.11C117.79 308.671 117.63 308.511 117.63 308.191V306.623C117.63 306.303 117.79 306.143 118.11 306.143H119.806V287.391H118.078C117.758 287.391 117.598 287.231 117.598 286.911V285.279C117.598 284.959 117.758 284.799 118.078 284.799H122.91C123.23 284.799 123.39 284.959 123.39 285.279ZM141.963 289.535V306.143H148.651L148.523 303.903C148.502 303.583 148.651 303.423 148.971 303.423H150.763C151.083 303.423 151.243 303.583 151.243 303.903V310.207C151.243 310.527 151.083 310.687 150.763 310.687H148.971C148.651 310.687 148.502 310.527 148.523 310.207L148.619 308.671H136.683C136.363 308.671 136.203 308.511 136.203 308.191V306.623C136.203 306.303 136.363 306.143 136.683 306.143H138.379V289.535H136.683C136.363 289.535 136.203 289.375 136.203 289.055V287.423C136.203 287.103 136.363 286.943 136.683 286.943H144.299C144.619 286.943 144.779 287.103 144.779 287.423V289.055C144.779 289.375 144.619 289.535 144.299 289.535H141.963ZM158.328 306.143H160.344C160.664 306.143 160.824 306.303 160.824 306.623V308.191C160.824 308.511 160.664 308.671 160.344 308.671H152.728C152.408 308.671 152.248 308.511 152.248 308.191V306.623C152.248 306.303 152.408 306.143 152.728 306.143C152.728 306.143 153.4 306.143 154.744 306.143V295.455H153.016C152.696 295.455 152.536 295.295 152.536 294.975V293.311C152.536 292.991 152.696 292.831 153.016 292.831H157.848C158.168 292.831 158.328 292.991 158.328 293.311V306.143ZM154.456 289.983C154.05 289.556 153.848 289.012 153.848 288.351C153.848 287.69 154.05 287.146 154.456 286.719C154.882 286.271 155.437 286.047 156.12 286.047C156.824 286.047 157.378 286.271 157.784 286.719C158.21 287.146 158.424 287.69 158.424 288.351C158.424 289.012 158.21 289.556 157.784 289.983C157.357 290.41 156.792 290.623 156.088 290.623C155.405 290.623 154.861 290.41 154.456 289.983ZM161.942 295.007V293.311C161.942 292.991 162.102 292.831 162.422 292.831H166.774C167.051 292.831 167.222 292.991 167.286 293.311L167.574 295.167C168.769 293.375 170.475 292.479 172.694 292.479C176.001 292.479 177.654 294.292 177.654 297.919V306.143H179.51C179.83 306.143 179.99 306.303 179.99 306.623V308.191C179.99 308.511 179.83 308.671 179.51 308.671H172.534C172.214 308.671 172.054 308.511 172.054 308.191V306.623C172.054 306.303 172.214 306.143 172.534 306.143H174.07V299.519C174.07 298.175 173.899 297.194 173.558 296.575C173.217 295.956 172.513 295.647 171.446 295.647C170.379 295.647 169.494 295.967 168.79 296.607C168.086 297.247 167.734 297.972 167.734 298.783V306.143H169.718C170.038 306.143 170.198 306.303 170.198 306.623V308.191C170.198 308.511 170.038 308.671 169.718 308.671H162.454C162.134 308.671 161.974 308.511 161.974 308.191V306.623C161.974 306.303 162.134 306.143 162.454 306.143H164.15V295.455H162.422C162.102 295.455 161.942 295.306 161.942 295.007ZM188.935 309.055C186.396 309.055 184.529 308.319 183.335 306.847C182.161 305.354 181.575 303.391 181.575 300.959C181.575 298.506 182.204 296.479 183.463 294.879C184.721 293.279 186.535 292.479 188.903 292.479C190.076 292.479 191.079 292.703 191.911 293.151C192.764 293.578 193.415 294.164 193.863 294.911C194.716 296.362 195.143 298.036 195.143 299.935C195.143 300.831 195.1 301.322 195.015 301.407C194.929 301.492 194.769 301.535 194.535 301.535H185.127C185.233 303.071 185.607 304.266 186.247 305.119C186.908 305.951 188.039 306.367 189.639 306.367C190.812 306.367 192.017 306.09 193.255 305.535C193.553 305.386 193.767 305.471 193.895 305.791L194.503 307.263C194.609 307.519 194.513 307.732 194.215 307.903C192.807 308.671 191.047 309.055 188.935 309.055ZM185.127 299.167H191.783C191.825 296.5 190.78 295.167 188.647 295.167C187.388 295.167 186.492 295.572 185.959 296.383C185.447 297.172 185.169 298.1 185.127 299.167ZM211.573 286.399C213.152 286.399 214.73 286.634 216.309 287.103C216.608 287.188 216.757 287.38 216.757 287.679V292.095C216.757 292.415 216.597 292.575 216.277 292.575H214.485C214.165 292.575 214.016 292.415 214.037 292.095L214.133 289.951C213.28 289.439 212.33 289.183 211.285 289.183C210.24 289.183 209.397 289.439 208.757 289.951C208.138 290.442 207.829 291.135 207.829 292.031C207.829 292.927 208.117 293.663 208.693 294.239C209.269 294.794 210.09 295.274 211.157 295.679C212.224 296.084 212.938 296.362 213.301 296.511C213.664 296.66 214.186 296.938 214.869 297.343C215.573 297.748 216.085 298.154 216.405 298.559C216.746 298.943 217.056 299.466 217.333 300.127C217.632 300.788 217.781 301.524 217.781 302.335C217.781 304.447 217.109 306.1 215.765 307.295C214.442 308.468 212.554 309.055 210.101 309.055C208.288 309.055 206.496 308.778 204.725 308.223C204.426 308.138 204.277 307.946 204.277 307.647V302.559C204.277 302.239 204.437 302.079 204.757 302.079H206.549C206.869 302.079 207.018 302.239 206.997 302.559L206.869 305.215C207.146 305.471 207.605 305.716 208.245 305.951C208.906 306.164 209.578 306.271 210.261 306.271C212.906 306.271 214.229 305.194 214.229 303.039C214.229 301.994 213.877 301.172 213.173 300.575C212.469 299.956 211.552 299.466 210.421 299.103C209.312 298.719 208.469 298.388 207.893 298.111C207.317 297.812 206.73 297.428 206.133 296.959C204.938 296.063 204.341 294.687 204.341 292.831C204.341 290.975 204.981 289.439 206.261 288.223C207.541 287.007 209.312 286.399 211.573 286.399ZM220.168 300.991C220.168 299.391 220.414 298.004 220.904 296.831C221.395 295.658 222.035 294.772 222.824 294.175C224.339 293.044 225.982 292.479 227.752 292.479C229.054 292.479 230.152 292.682 231.048 293.087C231.944 293.492 232.638 293.962 233.128 294.495C233.64 295.028 234.067 295.796 234.408 296.799C234.771 297.802 234.952 298.975 234.952 300.319C234.952 303.178 234.227 305.354 232.776 306.847C231.347 308.319 229.512 309.055 227.272 309.055C225.032 309.055 223.283 308.383 222.024 307.039C220.787 305.674 220.168 303.658 220.168 300.991ZM227.528 306.431C228.808 306.431 229.736 305.962 230.312 305.023C230.91 304.063 231.208 302.644 231.208 300.767C231.208 298.89 230.91 297.482 230.312 296.543C229.736 295.583 228.787 295.103 227.464 295.103C225.011 295.103 223.784 296.831 223.784 300.287C223.784 304.383 225.032 306.431 227.528 306.431ZM242.672 285.279V306.143H244.688C245.008 306.143 245.168 306.303 245.168 306.623V308.191C245.168 308.511 245.008 308.671 244.688 308.671H237.072C236.752 308.671 236.592 308.511 236.592 308.191V306.623C236.592 306.303 236.752 306.143 237.072 306.143H239.088V287.423H237.36C237.04 287.423 236.88 287.263 236.88 286.943V285.279C236.88 284.959 237.04 284.799 237.36 284.799H242.192C242.512 284.799 242.672 284.959 242.672 285.279ZM261.806 306.143H263.214C263.534 306.143 263.694 306.303 263.694 306.623V308.191C263.694 308.511 263.534 308.671 263.214 308.671H259.63C259.374 308.671 259.214 308.511 259.15 308.191L258.862 306.399C257.496 308.17 255.704 309.055 253.486 309.055C250.03 309.055 248.302 307.242 248.302 303.615V295.455H246.606C246.286 295.455 246.126 295.295 246.126 294.975V293.311C246.126 292.991 246.286 292.831 246.606 292.831H251.406C251.726 292.831 251.886 292.991 251.886 293.311V302.655C251.886 303.935 252.046 304.852 252.366 305.407C252.707 305.94 253.411 306.207 254.478 306.207C255.566 306.207 256.462 305.887 257.166 305.247C257.87 304.607 258.222 303.882 258.222 303.071V295.455H256.206C255.886 295.455 255.726 295.295 255.726 294.975V293.311C255.726 292.991 255.886 292.831 256.206 292.831H261.326C261.646 292.831 261.806 292.991 261.806 293.311V306.143ZM271.01 295.455V303.519C271.01 304.522 271.138 305.247 271.394 305.695C271.65 306.143 272.13 306.367 272.834 306.367C273.538 306.367 274.221 306.218 274.882 305.919C275.117 305.834 275.287 305.919 275.394 306.175L275.97 307.647C275.991 307.711 276.002 307.807 276.002 307.935C276.002 308.042 275.895 308.159 275.682 308.287C274.658 308.799 273.442 309.055 272.034 309.055C270.135 309.055 268.887 308.564 268.29 307.583C267.863 306.943 267.618 306.324 267.554 305.727C267.469 304.916 267.426 304.063 267.426 303.167V295.455H265.602C265.282 295.455 265.122 295.295 265.122 294.975V293.311C265.122 292.991 265.282 292.831 265.602 292.831H267.426V288.511C267.426 288.191 267.586 288.031 267.906 288.031H270.53C270.85 288.031 271.01 288.191 271.01 288.511V292.831H274.242C274.562 292.831 274.722 292.991 274.722 293.311V294.975C274.722 295.295 274.562 295.455 274.242 295.455H271.01ZM283.047 306.143H285.063C285.383 306.143 285.543 306.303 285.543 306.623V308.191C285.543 308.511 285.383 308.671 285.063 308.671H277.447C277.127 308.671 276.967 308.511 276.967 308.191V306.623C276.967 306.303 277.127 306.143 277.447 306.143C277.447 306.143 278.119 306.143 279.463 306.143V295.455H277.735C277.415 295.455 277.255 295.295 277.255 294.975V293.311C277.255 292.991 277.415 292.831 277.735 292.831H282.567C282.887 292.831 283.047 292.991 283.047 293.311V306.143ZM279.175 289.983C278.769 289.556 278.567 289.012 278.567 288.351C278.567 287.69 278.769 287.146 279.175 286.719C279.601 286.271 280.156 286.047 280.839 286.047C281.543 286.047 282.097 286.271 282.503 286.719C282.929 287.146 283.143 287.69 283.143 288.351C283.143 289.012 282.929 289.556 282.503 289.983C282.076 290.41 281.511 290.623 280.807 290.623C280.124 290.623 279.58 290.41 279.175 289.983ZM286.981 300.991C286.981 299.391 287.226 298.004 287.717 296.831C288.207 295.658 288.847 294.772 289.637 294.175C291.151 293.044 292.794 292.479 294.565 292.479C295.866 292.479 296.965 292.682 297.861 293.087C298.757 293.492 299.45 293.962 299.941 294.495C300.453 295.028 300.879 295.796 301.221 296.799C301.583 297.802 301.765 298.975 301.765 300.319C301.765 303.178 301.039 305.354 299.589 306.847C298.159 308.319 296.325 309.055 294.085 309.055C291.845 309.055 290.095 308.383 288.837 307.039C287.599 305.674 286.981 303.658 286.981 300.991ZM294.341 306.431C295.621 306.431 296.549 305.962 297.125 305.023C297.722 304.063 298.021 302.644 298.021 300.767C298.021 298.89 297.722 297.482 297.125 296.543C296.549 295.583 295.599 295.103 294.277 295.103C291.823 295.103 290.597 296.831 290.597 300.287C290.597 304.383 291.845 306.431 294.341 306.431ZM303.692 295.007V293.311C303.692 292.991 303.852 292.831 304.172 292.831H308.524C308.801 292.831 308.972 292.991 309.036 293.311L309.324 295.167C310.519 293.375 312.225 292.479 314.444 292.479C317.751 292.479 319.404 294.292 319.404 297.919V306.143H321.26C321.58 306.143 321.74 306.303 321.74 306.623V308.191C321.74 308.511 321.58 308.671 321.26 308.671H314.284C313.964 308.671 313.804 308.511 313.804 308.191V306.623C313.804 306.303 313.964 306.143 314.284 306.143H315.82V299.519C315.82 298.175 315.649 297.194 315.308 296.575C314.967 295.956 314.263 295.647 313.196 295.647C312.129 295.647 311.244 295.967 310.54 296.607C309.836 297.247 309.484 297.972 309.484 298.783V306.143H311.468C311.788 306.143 311.948 306.303 311.948 306.623V308.191C311.948 308.511 311.788 308.671 311.468 308.671H304.204C303.884 308.671 303.724 308.511 303.724 308.191V306.623C303.724 306.303 303.884 306.143 304.204 306.143H305.9V295.455H304.172C303.852 295.455 303.692 295.306 303.692 295.007ZM323.997 297.407C323.997 295.999 324.541 294.826 325.629 293.887C326.717 292.948 328.093 292.479 329.757 292.479C331.421 292.479 332.861 292.671 334.077 293.055C334.375 293.14 334.525 293.332 334.525 293.631V297.023C334.525 297.343 334.365 297.503 334.045 297.503H332.189C331.847 297.503 331.709 297.343 331.773 297.023L331.933 295.391C331.293 295.05 330.589 294.879 329.821 294.879C328.114 294.879 327.261 295.476 327.261 296.671C327.261 297.29 327.538 297.78 328.093 298.143C328.647 298.506 329.319 298.804 330.109 299.039C330.898 299.252 331.687 299.508 332.477 299.807C333.287 300.084 333.97 300.575 334.525 301.279C335.079 301.962 335.357 302.836 335.357 303.903C335.357 305.524 334.791 306.794 333.661 307.711C332.53 308.607 330.941 309.055 328.893 309.055C327.463 309.055 325.959 308.842 324.381 308.415C324.103 308.33 323.965 308.127 323.965 307.807V304.415C323.965 304.095 324.125 303.935 324.445 303.935H326.301C326.621 303.935 326.77 304.095 326.749 304.415L326.653 306.079C327.229 306.506 328.05 306.719 329.117 306.719C331.015 306.719 331.965 306.047 331.965 304.703C331.965 304.02 331.687 303.487 331.133 303.103C330.599 302.698 329.938 302.388 329.149 302.175C328.381 301.962 327.602 301.727 326.813 301.471C326.023 301.194 325.351 300.724 324.797 300.063C324.263 299.38 323.997 298.495 323.997 297.407Z" fill="#F2EFEF"/>
</svg>
