<svg width="455" height="332" viewBox="0 0 455 332" fill="none" xmlns="http://www.w3.org/2000/svg">
<path d="M69.544 176.737L197.799 79.1989C197.799 79.1989 8.91563 155.865 11.4987 183.455C14.0818 211.045 96.8909 203.302 182.37 205.186C267.849 207.071 84.7206 284.264 84.7206 284.264C84.7206 284.264 305.712 209.07 295.021 192.148C284.329 175.225 69.544 176.737 69.544 176.737Z" fill="#F2EFEF" stroke="#F8F7F7"/>
<path d="M256.742 42.8171C255.442 84.2052 243.132 166.982 204.293 166.982H256.742V42.8171Z" fill="#F2EFEF"/>
<path d="M204.293 42.8171V166.982M204.293 166.982C243.132 166.982 255.442 84.2052 256.742 42.8171V166.982H204.293Z" stroke="#F8F7F7"/>
<path d="M115.434 1H340.401C287.952 1 340.401 41.2087 340.401 41.2087H115.434V1Z" fill="#F2EFEF" stroke="#F8F7F7"/>
<path d="M23.44 317H12.32C11.92 317 11.72 316.8 11.72 316.4V314.44C11.72 314.04 11.92 313.84 12.32 313.84H15.6V293.04H10.2L10.4 296.16C10.4267 296.56 10.24 296.76 9.84 296.76H7.4C7 296.76 6.8 296.56 6.8 296.16V290.44C6.8 290.04 7 289.84 7.4 289.84H28.32C28.72 289.84 28.92 290.04 28.92 290.44V296.16C28.92 296.56 28.72 296.76 28.32 296.76H25.88C25.48 296.76 25.2933 296.56 25.32 296.16L25.52 293.04H20.12V313.84H23.44C23.84 313.84 24.04 314.04 24.04 314.44V316.4C24.04 316.8 23.84 317 23.44 317ZM37.7109 300.64C38.1643 299.573 38.8976 298.667 39.9109 297.92C40.9243 297.147 42.0309 296.76 43.2309 296.76C44.4309 296.76 45.3509 296.867 45.9909 297.08C46.3109 297.187 46.4709 297.427 46.4709 297.8V303.2C46.4709 303.6 46.2709 303.8 45.8709 303.8H43.2709C42.8709 303.8 42.6843 303.6 42.7109 303.2L42.8709 300.88C42.7376 300.853 42.5109 300.84 42.1909 300.84C40.9643 300.84 39.9509 301.347 39.1509 302.36C38.3509 303.347 37.9509 304.68 37.9509 306.36V313.84H42.3509C42.7509 313.84 42.9509 314.04 42.9509 314.44V316.4C42.9509 316.8 42.7509 317 42.3509 317H31.3509C30.9509 317 30.7509 316.8 30.7509 316.4V314.44C30.7509 314.04 30.9509 313.84 31.3509 313.84H33.4709V300.48H31.3109C30.9109 300.48 30.7109 300.28 30.7109 299.88V297.8C30.7109 297.4 30.9109 297.2 31.3109 297.2H36.5909C36.9643 297.2 37.1909 297.4 37.2709 297.8L37.7109 300.64ZM59.745 305.12V303.72C59.745 301.827 59.2117 300.64 58.145 300.16C57.6383 299.947 56.905 299.84 55.945 299.84C54.1317 299.84 53.0383 300.693 52.665 302.4C52.585 302.8 52.385 303 52.065 303H49.505C49.0783 303 48.8917 302.8 48.945 302.4C49.0517 300.453 49.8383 299.027 51.305 298.12C52.7717 297.213 54.6383 296.76 56.905 296.76C61.6783 296.76 64.065 298.947 64.065 303.32V313.84H65.785C66.185 313.84 66.385 314.04 66.385 314.44V316.4C66.385 316.8 66.185 317 65.785 317H61.065C60.7183 317 60.5183 316.8 60.465 316.4L60.185 314.56C58.745 316.507 56.665 317.48 53.945 317.48C52.2383 317.48 50.825 317.04 49.705 316.16C48.585 315.253 48.025 313.813 48.025 311.84C48.025 309.253 49.105 307.48 51.265 306.52C53.0517 305.693 55.185 305.24 57.665 305.16C58.1717 305.16 58.865 305.147 59.745 305.12ZM59.825 310.96V307.88C57.265 307.88 55.6917 308 55.105 308.24C54.5183 308.48 53.9983 308.72 53.545 308.96C52.6917 309.413 52.265 310.24 52.265 311.44C52.265 313.28 53.3183 314.2 55.425 314.2C56.8117 314.2 57.8917 313.88 58.665 313.24C59.4383 312.573 59.825 311.813 59.825 310.96ZM73.5616 306.84C73.5616 311.693 75.4416 314.12 79.2016 314.12C80.4016 314.12 81.8016 313.76 83.4016 313.04C83.8016 312.88 84.0816 313 84.2416 313.4L84.9616 315.16C85.0949 315.533 84.9882 315.813 84.6416 316C83.0149 316.987 80.9616 317.48 78.4816 317.48C75.2549 317.48 72.8682 316.573 71.3216 314.76C69.7749 312.92 69.0016 310.44 69.0016 307.32C69.0016 304.173 69.7882 301.627 71.3616 299.68C72.9616 297.733 75.3349 296.76 78.4816 296.76C80.8816 296.76 82.6549 297.413 83.8016 298.72C84.9482 300.027 85.5216 301.693 85.5216 303.72C85.5216 304.067 85.2949 304.24 84.8416 304.24H82.4416C82.0149 304.24 81.7882 304.04 81.7616 303.64C81.6282 301.293 80.4416 300.12 78.2016 300.12C76.6016 300.12 75.4282 300.68 74.6816 301.8C73.9349 302.893 73.5616 304.573 73.5616 306.84ZM94.5525 287.76V303.72H96.5925L102.793 297.64C103.086 297.347 103.433 297.2 103.833 297.2H106.953C107.353 297.2 107.553 297.4 107.553 297.8V299.88C107.553 300.28 107.353 300.48 106.953 300.48H104.513L100.113 304.76L105.593 313.84H107.953C108.353 313.84 108.553 314.04 108.553 314.44V316.4C108.553 316.8 108.353 317 107.953 317H102.793C102.419 317 102.113 316.827 101.873 316.48L95.8725 306.8H94.5525V313.84H96.6725C97.0725 313.84 97.2725 314.04 97.2725 314.44V316.4C97.2725 316.8 97.0725 317 96.6725 317H87.9525C87.5525 317 87.3525 316.8 87.3525 316.4V314.44C87.3525 314.04 87.5525 313.84 87.9525 313.84H90.0725V290.4H87.9125C87.5125 290.4 87.3125 290.2 87.3125 289.8V287.76C87.3125 287.36 87.5125 287.16 87.9125 287.16H93.9525C94.3525 287.16 94.5525 287.36 94.5525 287.76ZM117.769 293.08V313.84H126.129L125.969 311.04C125.942 310.64 126.129 310.44 126.529 310.44H128.769C129.169 310.44 129.369 310.64 129.369 311.04V318.92C129.369 319.32 129.169 319.52 128.769 319.52H126.529C126.129 319.52 125.942 319.32 125.969 318.92L126.089 317H111.169C110.769 317 110.569 316.8 110.569 316.4V314.44C110.569 314.04 110.769 313.84 111.169 313.84H113.289V293.08H111.169C110.769 293.08 110.569 292.88 110.569 292.48V290.44C110.569 290.04 110.769 289.84 111.169 289.84H120.689C121.089 289.84 121.289 290.04 121.289 290.44V292.48C121.289 292.88 121.089 293.08 120.689 293.08H117.769ZM138.224 313.84H140.744C141.144 313.84 141.344 314.04 141.344 314.44V316.4C141.344 316.8 141.144 317 140.744 317H131.224C130.824 317 130.624 316.8 130.624 316.4V314.44C130.624 314.04 130.824 313.84 131.224 313.84C131.224 313.84 132.064 313.84 133.744 313.84V300.48H131.584C131.184 300.48 130.984 300.28 130.984 299.88V297.8C130.984 297.4 131.184 297.2 131.584 297.2H137.624C138.024 297.2 138.224 297.4 138.224 297.8V313.84ZM133.384 293.64C132.878 293.107 132.624 292.427 132.624 291.6C132.624 290.773 132.878 290.093 133.384 289.56C133.918 289 134.611 288.72 135.464 288.72C136.344 288.72 137.038 289 137.544 289.56C138.078 290.093 138.344 290.773 138.344 291.6C138.344 292.427 138.078 293.107 137.544 293.64C137.011 294.173 136.304 294.44 135.424 294.44C134.571 294.44 133.891 294.173 133.384 293.64ZM142.742 299.92V297.8C142.742 297.4 142.942 297.2 143.342 297.2H148.782C149.129 297.2 149.342 297.4 149.422 297.8L149.782 300.12C151.276 297.88 153.409 296.76 156.182 296.76C160.316 296.76 162.382 299.027 162.382 303.56V313.84H164.702C165.102 313.84 165.302 314.04 165.302 314.44V316.4C165.302 316.8 165.102 317 164.702 317H155.982C155.582 317 155.382 316.8 155.382 316.4V314.44C155.382 314.04 155.582 313.84 155.982 313.84H157.902V305.56C157.902 303.88 157.689 302.653 157.262 301.88C156.836 301.107 155.956 300.72 154.622 300.72C153.289 300.72 152.182 301.12 151.302 301.92C150.422 302.72 149.982 303.627 149.982 304.64V313.84H152.462C152.862 313.84 153.062 314.04 153.062 314.44V316.4C153.062 316.8 152.862 317 152.462 317H143.382C142.982 317 142.782 316.8 142.782 316.4V314.44C142.782 314.04 142.982 313.84 143.382 313.84H145.502V300.48H143.342C142.942 300.48 142.742 300.293 142.742 299.92ZM176.483 317.48C173.309 317.48 170.976 316.56 169.483 314.72C168.016 312.853 167.283 310.4 167.283 307.36C167.283 304.293 168.069 301.76 169.643 299.76C171.216 297.76 173.483 296.76 176.443 296.76C177.909 296.76 179.163 297.04 180.203 297.6C181.269 298.133 182.083 298.867 182.643 299.8C183.709 301.613 184.243 303.707 184.243 306.08C184.243 307.2 184.189 307.813 184.083 307.92C183.976 308.027 183.776 308.08 183.483 308.08H171.723C171.856 310 172.323 311.493 173.123 312.56C173.949 313.6 175.363 314.12 177.363 314.12C178.829 314.12 180.336 313.773 181.883 313.08C182.256 312.893 182.523 313 182.683 313.4L183.443 315.24C183.576 315.56 183.456 315.827 183.083 316.04C181.323 317 179.123 317.48 176.483 317.48ZM171.723 305.12H180.043C180.096 301.787 178.789 300.12 176.123 300.12C174.549 300.12 173.429 300.627 172.763 301.64C172.123 302.627 171.776 303.787 171.723 305.12ZM204.781 289.16C206.754 289.16 208.728 289.453 210.701 290.04C211.074 290.147 211.261 290.387 211.261 290.76V296.28C211.261 296.68 211.061 296.88 210.661 296.88H208.421C208.021 296.88 207.834 296.68 207.861 296.28L207.981 293.6C206.914 292.96 205.728 292.64 204.421 292.64C203.114 292.64 202.061 292.96 201.261 293.6C200.488 294.213 200.101 295.08 200.101 296.2C200.101 297.32 200.461 298.24 201.181 298.96C201.901 299.653 202.928 300.253 204.261 300.76C205.594 301.267 206.488 301.613 206.941 301.8C207.394 301.987 208.048 302.333 208.901 302.84C209.781 303.347 210.421 303.853 210.821 304.36C211.248 304.84 211.634 305.493 211.981 306.32C212.354 307.147 212.541 308.067 212.541 309.08C212.541 311.72 211.701 313.787 210.021 315.28C208.368 316.747 206.008 317.48 202.941 317.48C200.674 317.48 198.434 317.133 196.221 316.44C195.848 316.333 195.661 316.093 195.661 315.72V309.36C195.661 308.96 195.861 308.76 196.261 308.76H198.501C198.901 308.76 199.088 308.96 199.061 309.36L198.901 312.68C199.248 313 199.821 313.307 200.621 313.6C201.448 313.867 202.288 314 203.141 314C206.448 314 208.101 312.653 208.101 309.96C208.101 308.653 207.661 307.627 206.781 306.88C205.901 306.107 204.754 305.493 203.341 305.04C201.954 304.56 200.901 304.147 200.181 303.8C199.461 303.427 198.728 302.947 197.981 302.36C196.488 301.24 195.741 299.52 195.741 297.2C195.741 294.88 196.541 292.96 198.141 291.44C199.741 289.92 201.954 289.16 204.781 289.16ZM215.525 307.4C215.525 305.4 215.832 303.667 216.445 302.2C217.058 300.733 217.858 299.627 218.845 298.88C220.738 297.467 222.792 296.76 225.005 296.76C226.632 296.76 228.005 297.013 229.125 297.52C230.245 298.027 231.112 298.613 231.725 299.28C232.365 299.947 232.898 300.907 233.325 302.16C233.778 303.413 234.005 304.88 234.005 306.56C234.005 310.133 233.098 312.853 231.285 314.72C229.498 316.56 227.205 317.48 224.405 317.48C221.605 317.48 219.418 316.64 217.845 314.96C216.298 313.253 215.525 310.733 215.525 307.4ZM224.725 314.2C226.325 314.2 227.485 313.613 228.205 312.44C228.952 311.24 229.325 309.467 229.325 307.12C229.325 304.773 228.952 303.013 228.205 301.84C227.485 300.64 226.298 300.04 224.645 300.04C221.578 300.04 220.045 302.2 220.045 306.52C220.045 311.64 221.605 314.2 224.725 314.2ZM243.654 287.76V313.84H246.174C246.574 313.84 246.774 314.04 246.774 314.44V316.4C246.774 316.8 246.574 317 246.174 317H236.654C236.254 317 236.054 316.8 236.054 316.4V314.44C236.054 314.04 236.254 313.84 236.654 313.84H239.174V290.44H237.014C236.614 290.44 236.414 290.24 236.414 289.84V287.76C236.414 287.36 236.614 287.16 237.014 287.16H243.054C243.454 287.16 243.654 287.36 243.654 287.76ZM267.572 313.84H269.332C269.732 313.84 269.932 314.04 269.932 314.44V316.4C269.932 316.8 269.732 317 269.332 317H264.852C264.532 317 264.332 316.8 264.252 316.4L263.892 314.16C262.185 316.373 259.945 317.48 257.172 317.48C252.852 317.48 250.692 315.213 250.692 310.68V300.48H248.572C248.172 300.48 247.972 300.28 247.972 299.88V297.8C247.972 297.4 248.172 297.2 248.572 297.2H254.572C254.972 297.2 255.172 297.4 255.172 297.8V309.48C255.172 311.08 255.372 312.227 255.772 312.92C256.199 313.587 257.079 313.92 258.412 313.92C259.772 313.92 260.892 313.52 261.772 312.72C262.652 311.92 263.092 311.013 263.092 310V300.48H260.572C260.172 300.48 259.972 300.28 259.972 299.88V297.8C259.972 297.4 260.172 297.2 260.572 297.2H266.972C267.372 297.2 267.572 297.4 267.572 297.8V313.84ZM279.077 300.48V310.56C279.077 311.813 279.237 312.72 279.557 313.28C279.877 313.84 280.477 314.12 281.357 314.12C282.237 314.12 283.091 313.933 283.917 313.56C284.211 313.453 284.424 313.56 284.557 313.88L285.277 315.72C285.304 315.8 285.317 315.92 285.317 316.08C285.317 316.213 285.184 316.36 284.917 316.52C283.637 317.16 282.117 317.48 280.357 317.48C277.984 317.48 276.424 316.867 275.677 315.64C275.144 314.84 274.837 314.067 274.757 313.32C274.651 312.307 274.597 311.24 274.597 310.12V300.48H272.317C271.917 300.48 271.717 300.28 271.717 299.88V297.8C271.717 297.4 271.917 297.2 272.317 297.2H274.597V291.8C274.597 291.4 274.797 291.2 275.197 291.2H278.477C278.877 291.2 279.077 291.4 279.077 291.8V297.2H283.117C283.517 297.2 283.717 297.4 283.717 297.8V299.88C283.717 300.28 283.517 300.48 283.117 300.48H279.077ZM294.123 313.84H296.643C297.043 313.84 297.243 314.04 297.243 314.44V316.4C297.243 316.8 297.043 317 296.643 317H287.123C286.723 317 286.523 316.8 286.523 316.4V314.44C286.523 314.04 286.723 313.84 287.123 313.84C287.123 313.84 287.963 313.84 289.643 313.84V300.48H287.483C287.083 300.48 286.883 300.28 286.883 299.88V297.8C286.883 297.4 287.083 297.2 287.483 297.2H293.523C293.923 297.2 294.123 297.4 294.123 297.8V313.84ZM289.283 293.64C288.776 293.107 288.523 292.427 288.523 291.6C288.523 290.773 288.776 290.093 289.283 289.56C289.816 289 290.509 288.72 291.363 288.72C292.243 288.72 292.936 289 293.443 289.56C293.976 290.093 294.243 290.773 294.243 291.6C294.243 292.427 293.976 293.107 293.443 293.64C292.909 294.173 292.203 294.44 291.323 294.44C290.469 294.44 289.789 294.173 289.283 293.64ZM299.041 307.4C299.041 305.4 299.347 303.667 299.961 302.2C300.574 300.733 301.374 299.627 302.361 298.88C304.254 297.467 306.307 296.76 308.521 296.76C310.147 296.76 311.521 297.013 312.641 297.52C313.761 298.027 314.627 298.613 315.241 299.28C315.881 299.947 316.414 300.907 316.841 302.16C317.294 303.413 317.521 304.88 317.521 306.56C317.521 310.133 316.614 312.853 314.801 314.72C313.014 316.56 310.721 317.48 307.921 317.48C305.121 317.48 302.934 316.64 301.361 314.96C299.814 313.253 299.041 310.733 299.041 307.4ZM308.241 314.2C309.841 314.2 311.001 313.613 311.721 312.44C312.467 311.24 312.841 309.467 312.841 307.12C312.841 304.773 312.467 303.013 311.721 301.84C311.001 300.64 309.814 300.04 308.161 300.04C305.094 300.04 303.561 302.2 303.561 306.52C303.561 311.64 305.121 314.2 308.241 314.2ZM319.93 299.92V297.8C319.93 297.4 320.13 297.2 320.53 297.2H325.97C326.316 297.2 326.53 297.4 326.61 297.8L326.97 300.12C328.463 297.88 330.596 296.76 333.37 296.76C337.503 296.76 339.57 299.027 339.57 303.56V313.84H341.89C342.29 313.84 342.49 314.04 342.49 314.44V316.4C342.49 316.8 342.29 317 341.89 317H333.17C332.77 317 332.57 316.8 332.57 316.4V314.44C332.57 314.04 332.77 313.84 333.17 313.84H335.09V305.56C335.09 303.88 334.876 302.653 334.45 301.88C334.023 301.107 333.143 300.72 331.81 300.72C330.476 300.72 329.37 301.12 328.49 301.92C327.61 302.72 327.17 303.627 327.17 304.64V313.84H329.65C330.05 313.84 330.25 314.04 330.25 314.44V316.4C330.25 316.8 330.05 317 329.65 317H320.57C320.17 317 319.97 316.8 319.97 316.4V314.44C319.97 314.04 320.17 313.84 320.57 313.84H322.69V300.48H320.53C320.13 300.48 319.93 300.293 319.93 299.92ZM345.31 302.92C345.31 301.16 345.99 299.693 347.35 298.52C348.71 297.347 350.43 296.76 352.51 296.76C354.59 296.76 356.39 297 357.91 297.48C358.284 297.587 358.47 297.827 358.47 298.2V302.44C358.47 302.84 358.27 303.04 357.87 303.04H355.55C355.124 303.04 354.95 302.84 355.03 302.44L355.23 300.4C354.43 299.973 353.55 299.76 352.59 299.76C350.457 299.76 349.39 300.507 349.39 302C349.39 302.773 349.737 303.387 350.43 303.84C351.124 304.293 351.964 304.667 352.95 304.96C353.937 305.227 354.924 305.547 355.91 305.92C356.924 306.267 357.777 306.88 358.47 307.76C359.164 308.613 359.51 309.707 359.51 311.04C359.51 313.067 358.804 314.653 357.39 315.8C355.977 316.92 353.99 317.48 351.43 317.48C349.644 317.48 347.764 317.213 345.79 316.68C345.444 316.573 345.27 316.32 345.27 315.92V311.68C345.27 311.28 345.47 311.08 345.87 311.08H348.19C348.59 311.08 348.777 311.28 348.75 311.68L348.63 313.76C349.35 314.293 350.377 314.56 351.71 314.56C354.084 314.56 355.27 313.72 355.27 312.04C355.27 311.187 354.924 310.52 354.23 310.04C353.564 309.533 352.737 309.147 351.75 308.88C350.79 308.613 349.817 308.32 348.83 308C347.844 307.653 347.004 307.067 346.31 306.24C345.644 305.387 345.31 304.28 345.31 302.92Z" fill="#F2EFEF"/>
</svg>
